<svg width="26" height="26" viewBox="0 0 26 26" fill="none" xmlns="http://www.w3.org/2000/svg">
<path fill-rule="evenodd" clip-rule="evenodd" d="M12.8012 0C9.3249 0 8.8886 0.0152001 7.5233 0.0773001C6.1606 0.1397 5.2305 0.3555 4.4166 0.672C3.5747 0.9989 2.8606 1.4363 2.1491 2.148C1.4371 2.8595 0.9997 3.5736 0.6717 4.4152C0.3544 5.2294 0.1384 6.1598 0.0770998 7.5219C0.0159998 8.8873 0 9.3238 0 12.8001C0 16.2764 0.0155001 16.7114 0.0773001 18.0767C0.14 19.4394 0.3557 20.3695 0.672 21.1834C0.9992 22.0253 1.4365 22.7394 2.1483 23.4509C2.8595 24.1629 3.5736 24.6013 4.415 24.9283C5.2294 25.2448 6.1598 25.4605 7.5222 25.5229C8.8876 25.5851 9.3236 25.6003 12.7996 25.6003C16.2762 25.6003 16.7111 25.5851 18.0765 25.5229C19.4391 25.4605 20.3703 25.2448 21.1848 24.9283C22.0264 24.6013 22.7394 24.1629 23.4506 23.4509C24.1626 22.7394 24.6 22.0253 24.928 21.1837C25.2427 20.3695 25.4587 19.4391 25.5227 18.077C25.584 16.7116 25.6 16.2764 25.6 12.8001C25.6 9.3238 25.584 8.8876 25.5227 7.5222C25.4587 6.1595 25.2427 5.2294 24.928 4.4155C24.6 3.5736 24.1626 2.8595 23.4506 2.148C22.7386 1.436 22.0266 0.9987 21.184 0.672C20.3679 0.3555 19.4373 0.1397 18.0746 0.0773001C16.7092 0.0152001 16.2746 0 12.7972 0H12.8012ZM12.3746 2.3066H12.3743C12.1156 2.3064 11.8758 2.3063 11.6529 2.3067V2.3035C9.2673 2.3062 8.8097 2.3222 7.6289 2.3755C6.3809 2.4328 5.7033 2.6408 5.2521 2.8168C4.6547 3.0494 4.228 3.3267 3.78 3.7747C3.332 4.2227 3.0542 4.6494 2.8222 5.2467C2.647 5.6979 2.4384 6.3753 2.3814 7.6233C2.32 8.9726 2.3078 9.3758 2.3078 12.794C2.3078 16.2122 2.32 16.6175 2.3814 17.9669C2.4382 19.2149 2.647 19.8922 2.8222 20.3429C3.0547 20.9405 3.332 21.3661 3.78 21.8141C4.228 22.2621 4.6547 22.5394 5.2521 22.7714C5.7035 22.9466 6.3809 23.1552 7.6289 23.2128C8.9782 23.2741 9.3833 23.2874 12.8012 23.2874C16.2188 23.2874 16.6242 23.2741 17.9735 23.2128C19.2215 23.1557 19.8994 22.9477 20.3501 22.7717C20.9477 22.5397 21.373 22.2624 21.821 21.8144C22.269 21.3666 22.5469 20.9413 22.7789 20.3439C22.9541 19.8933 23.1626 19.2159 23.2197 17.9679C23.281 16.6186 23.2944 16.2132 23.2944 12.7972C23.2944 9.3812 23.281 8.9758 23.2197 7.6265C23.1629 6.3785 22.9541 5.7011 22.7789 5.2505C22.5464 4.6531 22.269 4.2264 21.821 3.7784C21.3733 3.3304 20.9474 3.0531 20.3501 2.8211C19.8989 2.6459 19.2215 2.4374 17.9735 2.3803C16.6239 2.319 16.2188 2.3067 12.8012 2.3067L12.3746 2.3066ZM18.0978 5.9675C18.0978 5.1193 18.7858 4.432 19.6338 4.432C20.4818 4.432 21.1698 5.1195 21.1698 5.9675C21.1698 6.8155 20.4818 7.5035 19.6338 7.5035C18.7858 7.5035 18.0978 6.8155 18.0978 5.9675ZM6.2278 12.8001C6.2278 9.17 9.171 6.2267 12.8012 6.2267C16.4314 6.2267 19.3735 9.17 19.3735 12.8001C19.3735 16.4303 16.4314 19.3722 12.8012 19.3722C9.171 19.3722 6.2278 16.4303 6.2278 12.8001ZM17.0679 12.8001C17.0679 10.4436 15.1575 8.5334 12.8012 8.5334C10.4446 8.5334 8.5345 10.4436 8.5345 12.8001C8.5345 15.1564 10.4446 17.0668 12.8012 17.0668C15.1575 17.0668 17.0679 15.1564 17.0679 12.8001Z" fill="#7C7C7C"/>
</svg>
