<svg width="24" height="20" viewBox="0 0 24 20" fill="none" xmlns="http://www.w3.org/2000/svg">
<path fill-rule="evenodd" clip-rule="evenodd" d="M11.2812 5.50788L11.3316 6.33838L10.4922 6.23668C7.4369 5.84688 4.7677 4.52488 2.5013 2.30468L1.3934 1.20308L1.108 2.01658C0.5036 3.82998 0.8897 5.74518 2.1488 7.03318C2.8203 7.74498 2.6692 7.84668 1.5109 7.42298C1.108 7.28738 0.7554 7.18578 0.7219 7.23658C0.6044 7.35518 1.0073 8.89748 1.3262 9.50758C1.7627 10.355 2.6524 11.1855 3.6261 11.677L4.4487 12.0668L3.475 12.0837C2.5349 12.0837 2.5013 12.1007 2.6021 12.4566C2.9378 13.5582 4.264 14.7276 5.7413 15.2361L6.7822 15.592L5.8756 16.1343C4.5326 16.9139 2.9546 17.3546 1.3766 17.3885C0.6211 17.4054 0 17.4732 0 17.5241C0 17.6935 2.0481 18.6426 3.24 19.0155C6.8157 20.1171 11.063 19.6426 14.2526 17.7613C16.5189 16.4224 18.7852 13.7616 19.8428 11.1855C20.4136 9.81268 20.9844 7.30438 20.9844 6.10108C20.9844 5.32148 21.0347 5.21978 21.9748 4.28758C22.5288 3.74528 23.0492 3.15208 23.15 2.98258C23.3178 2.66058 23.3011 2.66058 22.4449 2.94868C21.018 3.45718 20.8165 3.38938 21.5216 2.62668C22.042 2.08438 22.6631 1.10138 22.6631 0.813281C22.6631 0.762481 22.4113 0.84718 22.1259 0.99968C21.8238 1.16918 21.1523 1.42338 20.6486 1.57598L19.7421 1.86408L18.9195 1.30478C18.4663 0.999681 17.8283 0.660781 17.4926 0.559081C16.6364 0.321781 15.327 0.355681 14.5548 0.626881C12.4563 1.38948 11.1301 3.35548 11.2812 5.50788Z" fill="#7C7C7C"/>
</svg>
