<svg width="26" height="19" viewBox="0 0 26 19" fill="none" xmlns="http://www.w3.org/2000/svg">
<path fill-rule="evenodd" clip-rule="evenodd" d="M23.0014 0.749496C24.1031 1.0517 24.9706 1.9424 25.2649 3.0734C25.7999 5.1232 25.7999 9.4002 25.7999 9.4002C25.7999 9.4002 25.7999 13.677 25.2649 15.7269C24.9706 16.8579 24.1031 17.7486 23.0014 18.051C21.0052 18.6002 13 18.6001 13 18.6001C13 18.6001 4.99455 18.6002 2.99815 18.051C1.89665 17.7486 1.02915 16.8579 0.734752 15.7269C0.199952 13.677 0.199951 9.4002 0.199951 9.4002C0.199951 9.4002 0.199952 5.1232 0.734752 3.0734C1.02915 1.9424 1.89665 1.0517 2.99815 0.749496C4.99455 0.200195 13 0.200195 13 0.200195C13 0.200195 21.0052 0.200195 23.0014 0.749496ZM10.6 5.80019V13.8002L17 9.8004L10.6 5.80019Z" fill="#7C7C7C"/>
</svg>
